<mxfile host="app.diagrams.net" modified="2024-06-25T07:06:53.259Z" agent="Mozilla/5.0 (Windows NT 10.0; Win64; x64) AppleWebKit/537.36 (KHTML, like Gecko) Chrome/126.0.0.0 Safari/537.36 Edg/126.0.0.0" etag="mEZEQMGUU-owpRRRZesk" version="24.6.2" type="github">
  <diagram name="第 1 页" id="p4b73s29t9qYTIhmIupe">
    <mxGraphModel dx="1213" dy="746" grid="1" gridSize="10" guides="1" tooltips="1" connect="1" arrows="1" fold="1" page="1" pageScale="1" pageWidth="827" pageHeight="1169" math="0" shadow="0">
      <root>
        <mxCell id="0" />
        <mxCell id="1" parent="0" />
        <mxCell id="P5oh4x6p1S0fZvczk9vT-1" value="" style="rounded=0;whiteSpace=wrap;html=1;fillColor=#d5e8d4;strokeColor=#82b366;" vertex="1" parent="1">
          <mxGeometry x="280" y="240" width="100" height="40" as="geometry" />
        </mxCell>
        <mxCell id="P5oh4x6p1S0fZvczk9vT-2" value="" style="rounded=0;whiteSpace=wrap;html=1;fillColor=#f8cecc;strokeColor=#b85450;" vertex="1" parent="1">
          <mxGeometry x="380" y="240" width="100" height="80" as="geometry" />
        </mxCell>
        <mxCell id="P5oh4x6p1S0fZvczk9vT-3" value="" style="rounded=0;whiteSpace=wrap;html=1;fillColor=#ffe6cc;strokeColor=#d79b00;" vertex="1" parent="1">
          <mxGeometry x="280" y="280" width="50" height="60" as="geometry" />
        </mxCell>
        <mxCell id="P5oh4x6p1S0fZvczk9vT-4" value="" style="rounded=0;whiteSpace=wrap;html=1;fillColor=#fff2cc;strokeColor=#d6b656;" vertex="1" parent="1">
          <mxGeometry x="330" y="280" width="50" height="60" as="geometry" />
        </mxCell>
        <mxCell id="P5oh4x6p1S0fZvczk9vT-5" value="" style="rounded=0;whiteSpace=wrap;html=1;fillColor=#e1d5e7;strokeColor=#9673a6;" vertex="1" parent="1">
          <mxGeometry x="430" y="320" width="50" height="100" as="geometry" />
        </mxCell>
        <mxCell id="P5oh4x6p1S0fZvczk9vT-6" value="" style="rounded=0;whiteSpace=wrap;html=1;fillColor=#647687;fontColor=#ffffff;strokeColor=#314354;" vertex="1" parent="1">
          <mxGeometry x="380" y="320" width="50" height="50" as="geometry" />
        </mxCell>
        <mxCell id="P5oh4x6p1S0fZvczk9vT-7" value="" style="rounded=0;whiteSpace=wrap;html=1;fillColor=#e3c800;fontColor=#000000;strokeColor=#B09500;" vertex="1" parent="1">
          <mxGeometry x="380" y="370" width="50" height="50" as="geometry" />
        </mxCell>
        <mxCell id="P5oh4x6p1S0fZvczk9vT-8" value="" style="rounded=0;whiteSpace=wrap;html=1;fillColor=#60a917;fontColor=#ffffff;strokeColor=#2D7600;" vertex="1" parent="1">
          <mxGeometry x="280" y="340" width="40" height="80" as="geometry" />
        </mxCell>
        <mxCell id="P5oh4x6p1S0fZvczk9vT-9" value="" style="rounded=0;whiteSpace=wrap;html=1;fillColor=#1ba1e2;fontColor=#ffffff;strokeColor=#006EAF;" vertex="1" parent="1">
          <mxGeometry x="320" y="340" width="60" height="50" as="geometry" />
        </mxCell>
        <mxCell id="P5oh4x6p1S0fZvczk9vT-10" value="" style="rounded=0;whiteSpace=wrap;html=1;fillColor=#d80073;fontColor=#ffffff;strokeColor=#A50040;" vertex="1" parent="1">
          <mxGeometry x="320" y="390" width="60" height="30" as="geometry" />
        </mxCell>
        <mxCell id="P5oh4x6p1S0fZvczk9vT-28" value="" style="rounded=0;whiteSpace=wrap;html=1;fillColor=none;strokeColor=none;" vertex="1" parent="1">
          <mxGeometry x="210" y="200" width="330" height="260" as="geometry" />
        </mxCell>
      </root>
    </mxGraphModel>
  </diagram>
</mxfile>
